<svg xmlns="http://www.w3.org/2000/svg" width="960" height="540" viewBox="0 0 960 540" role="img" aria-label="Organize PDF pages — three-step workflow">
  <defs><linearGradient id="bg" x1="0" x2="1"><stop stop-color="#f6f9ff"/><stop offset="1" stop-color="#edf7f7"/></linearGradient><style>.title{font:700 34px Arial,sans-serif;fill:#14243a}.eyebrow{font:700 14px Arial,sans-serif;letter-spacing:1.5px;fill:#1f67ff}.card{font:700 16px Arial,sans-serif;fill:#263b54}.number,.buttonText{font:700 14px Arial,sans-serif;fill:#fff}.pill{font:700 14px Arial,sans-serif;fill:#147b75}.check{font:700 18px Arial,sans-serif;fill:#263b54}.caption{font:400 15px Arial,sans-serif;fill:#62758c}</style></defs>
  <rect width="960" height="540" rx="24" fill="url(#bg)"/><rect x="28" y="26" width="904" height="54" rx="14" fill="#102039"/><circle cx="58" cy="53" r="7" fill="#ff776d"/><circle cx="80" cy="53" r="7" fill="#ffd66d"/><circle cx="102" cy="53" r="7" fill="#5dd49a"/><rect x="150" y="40" width="710" height="27" rx="13.5" fill="#263a57"/><text x="174" y="59" font-family="Arial,sans-serif" font-size="13" fill="#b9c7da">freepdfconverter-all-in-one.pages.dev</text>
    <text x="68" y="128" class="eyebrow">FREEPDF TOOLS · ON-DEVICE WORKFLOW</text>
    <text x="68" y="176" class="title">Organize PDF pages</text>
    <g transform="translate(68 216)"><rect width="248" height="176" rx="18" fill="#fff" stroke="#d7e2f0"/><circle cx="34" cy="36" r="20" fill="#1f67ff"/><text x="34" y="43" text-anchor="middle" class="number">1</text><rect x="28" y="78" width="192" height="11" rx="5.5" fill="#dbe7fb"/><rect x="28" y="101" width="150" height="10" rx="5" fill="#edf2f8"/><text x="28" y="145" class="card">Choose one PDF</text></g><g transform="translate(360 216)"><rect width="248" height="176" rx="18" fill="#fff" stroke="#d7e2f0"/><circle cx="34" cy="36" r="20" fill="#1f67ff"/><text x="34" y="43" text-anchor="middle" class="number">2</text><rect x="28" y="78" width="192" height="11" rx="5.5" fill="#dbe7fb"/><rect x="28" y="101" width="150" height="10" rx="5" fill="#edf2f8"/><text x="28" y="145" class="card">Move or remove pages</text></g><g transform="translate(652 216)"><rect width="248" height="176" rx="18" fill="#fff" stroke="#d7e2f0"/><circle cx="34" cy="36" r="20" fill="#1f67ff"/><text x="34" y="43" text-anchor="middle" class="number">3</text><rect x="28" y="78" width="192" height="11" rx="5.5" fill="#dbe7fb"/><rect x="28" y="101" width="150" height="10" rx="5" fill="#edf2f8"/><text x="28" y="145" class="card">Save the new order</text></g>
    <path d="M316 304h36M608 304h36" stroke="#56c9c3" stroke-width="8" stroke-linecap="round"/>
    <rect x="336" y="440" width="288" height="46" rx="23" fill="#e9fbf8"/><circle cx="366" cy="463" r="12" fill="#21a99f"/><path d="m360 463 4 4 8-9" fill="none" stroke="#fff" stroke-width="3" stroke-linecap="round" stroke-linejoin="round"/><text x="388" y="470" class="pill">Document stays in this browser</text></svg>
